HIERARCHY
ROOT Hips
{
	OFFSET	0.00	0.00	0.00
	CHANNELS 6 Xposition Yposition Zposition Zrotation Xrotation Yrotation
	JOINT LeftUpLeg
	{
		OFFSET	 0.126116	-0.014019	-0.065224
		CHANNELS 3 Zrotation Xrotation Yrotation
		JOINT LeftLeg
		{
			OFFSET	 0.000000	 0.000000	 0.569914
			CHANNELS 3 Zrotation Xrotation Yrotation
			JOINT LeftFoot
			{
				OFFSET	 0.000000	 0.000000	 0.544423
				CHANNELS 3 Zrotation Xrotation Yrotation
				JOINT LeftToeBase
				{
					OFFSET	 0.000000	 0.000000	 0.207117
					CHANNELS 3 Zrotation Xrotation Yrotation
					End Site
					{
						OFFSET	 0.000000	 0.000000	 0.207117
					}
				}
			}
		}
	}
	JOINT RightUpLeg
	{
		OFFSET	-0.124023	-0.008373	-0.065224
		CHANNELS 3 Zrotation Xrotation Yrotation
		JOINT RightLeg
		{
			OFFSET	 0.000000	 0.000000	 0.570047
			CHANNELS 3 Zrotation Xrotation Yrotation
			JOINT RightFoot
			{
				OFFSET	 0.000000	 0.000000	 0.544354
				CHANNELS 3 Zrotation Xrotation Yrotation
				JOINT RightToeBase
				{
					OFFSET	 0.000000	 0.000000	 0.207540
					CHANNELS 3 Zrotation Xrotation Yrotation
					End Site
					{
						OFFSET	 0.000000	 0.000000	 0.207540
					}
				}
			}
		}
	}
	JOINT Spine
	{
		OFFSET	 0.000184	-0.007763	 0.117403
		CHANNELS 3 Zrotation Xrotation Yrotation
		JOINT Spine1
		{
			OFFSET	 0.000000	 0.000000	 0.137269
			CHANNELS 3 Zrotation Xrotation Yrotation
			JOINT Spine2
			{
				OFFSET	 0.000000	 0.000000	 0.156879
				CHANNELS 3 Zrotation Xrotation Yrotation
				JOINT LeftShoulder
				{
					OFFSET	 0.080501	-0.002496	 0.160144
					CHANNELS 3 Zrotation Xrotation Yrotation
					JOINT LeftArm
					{
						OFFSET	 0.000000	 0.000000	 0.164363
						CHANNELS 3 Zrotation Xrotation Yrotation
						JOINT LeftForeArm
						{
							OFFSET	 0.000000	 0.000000	 0.364576
							CHANNELS 3 Zrotation Xrotation Yrotation
							JOINT LeftHand
							{
								OFFSET	 0.000000	 0.000000	 0.360812
								CHANNELS 3 Zrotation Xrotation Yrotation
								JOINT LeftHandIndex1
								{
									OFFSET	 0.000000	 0.000000	 0.086006
									CHANNELS 3 Zrotation Xrotation Yrotation
									JOINT LeftHandIndex2
									{
										OFFSET	 0.000000	 0.000000	 0.047236
										CHANNELS 3 Zrotation Xrotation Yrotation
										JOINT LeftHandIndex3
										{
											OFFSET	-0.004284	-0.000551	 0.038166
											CHANNELS 3 Zrotation Xrotation Yrotation
											End Site
											{
												OFFSET	-0.004284	-0.000551	 0.038166
											}
										}
									}
								}
							}
						}
					}
				}
				JOINT Neck
				{
					OFFSET	 0.000000	 0.000000	 0.176489
					CHANNELS 3 Zrotation Xrotation Yrotation
					JOINT Head
					{
						OFFSET	 0.000000	-0.001747	 0.077940
						CHANNELS 3 Zrotation Xrotation Yrotation
						End Site
						{
							OFFSET	 0.000000	-0.001747	 0.077940
						}
					}
				}
				JOINT RightShoulder
				{
					OFFSET	-0.080363	 0.000306	 0.159706
					CHANNELS 3 Zrotation Xrotation Yrotation
					JOINT RightArm
					{
						OFFSET	 0.000000	 0.000000	 0.164196
						CHANNELS 3 Zrotation Xrotation Yrotation
						JOINT RightForeArm
						{
							OFFSET	 0.000000	 0.000000	 0.365611
							CHANNELS 3 Zrotation Xrotation Yrotation
							JOINT RightHand
							{
								OFFSET	 0.000000	 0.000000	 0.360648
								CHANNELS 3 Zrotation Xrotation Yrotation
								JOINT RightHandIndex1
								{
									OFFSET	 0.000000	 0.000000	 0.069977
									CHANNELS 3 Zrotation Xrotation Yrotation
									JOINT RightHandIndex2
									{
										OFFSET	 0.000000	 0.000000	 0.052305
										CHANNELS 3 Zrotation Xrotation Yrotation
										JOINT RightHandIndex3
										{
											OFFSET	 0.009002	-0.000782	 0.042196
											CHANNELS 3 Zrotation Xrotation Yrotation
											End Site
											{
												OFFSET	 0.009002	-0.000782	 0.042196
											}
										}
									}
								}
							}
						}
					}
				}
			}
		}
	}
}
MOTION
Frames:    11
Frame Time: 0.03333334
-0.122949	-3.638545	 1.228309	-5.880517	 9.588133	 3.111974	 5.651390	-20.753930	 175.419300	-4.181031	-36.377130	-0.935812	-1.138916	 83.568550	-0.441668	-2.333921	 36.434220	-0.183858	-2.068036	-22.729030	-178.932800	-1.993140	-40.490390	-0.997312	-1.491752	 87.183320	 0.679654	 2.394331	 25.874080	-0.053531	-7.340941	 5.314987	-1.431476	-12.132540	 3.793849	-2.089218	-14.854630	 1.110934	-0.843494	-101.663300	 88.606610	-167.408900	 55.699880	 68.394640	-65.566660	-5.121344	-4.356339	-18.121030	 7.809533	-2.257967	-5.310346	-1.735266	-11.113210	 7.793906	-5.213516	-0.193813	 3.566525	-1.378229	 35.397820	-2.634230	 0.674230	 1.266833	 0.593227	-3.447837	 2.294677	 0.547205	 96.527240	 87.883070	 170.328500	-51.346460	 76.180160	 64.555600	-1.971408	-12.957780	 23.404680	-26.160550	-3.197459	 9.565735	-7.507438	-4.183059	-37.332840	 5.070815	-0.697434	-9.399699	-2.350882	 35.473990	 5.254307
-0.122986	-3.634446	 1.233873	-5.949037	 9.386078	 3.083570	 5.578475	-20.547400	 175.425400	-4.304099	-36.380290	-1.050632	-1.212208	 83.538740	-0.525272	-2.332108	 36.638130	-0.188914	-1.924021	-22.499640	-178.941200	-2.015817	-40.343890	-0.929335	-1.526960	 86.858080	 0.777148	 2.393784	 26.037760	-0.050092	-7.357276	 5.445573	-1.427587	-12.115980	 3.943428	-2.049711	-14.802470	 1.249897	-0.822500	-101.469500	 88.593610	-167.626200	 54.414040	 68.137930	-64.283780	-4.838429	-4.302614	-17.617770	 7.927396	-2.266598	-5.306392	-2.060870	-11.240280	 7.022783	-5.213516	-0.193813	 3.566525	-1.378229	 35.397820	-2.634230	 0.734034	 1.358604	 0.649087	-3.391943	 2.349311	 0.620260	 96.621380	 87.901370	 170.225100	-51.001430	 75.723060	 64.359440	-2.166219	-12.752310	 23.210690	-25.934720	-3.198113	 9.564651	-7.414604	-4.223243	-37.064440	 5.070815	-0.697434	-9.399699	-2.350882	 35.473990	 5.254307
-0.123910	-3.636065	 1.233439	-5.898829	 9.209324	 3.031284	 5.510893	-20.360580	 175.401200	-4.326798	-36.465650	-1.109299	-1.249482	 83.618440	-0.565259	-2.330122	 36.857270	-0.194379	-1.809797	-22.078700	-178.963500	-1.971703	-39.875550	-0.839203	-1.520573	 86.578290	 0.862716	 2.394662	 25.771550	-0.055677	-7.415935	 5.519917	-1.416616	-12.134360	 4.132833	-2.021599	-14.765950	 1.435750	-0.796437	-101.276700	 88.601980	-167.890100	 53.927100	 68.274120	-63.681370	-4.780745	-4.278104	-17.210760	 8.089797	-2.277228	-5.301374	-2.611225	-11.487480	 5.724737	-5.213516	-0.193813	 3.566525	-1.378229	 35.397820	-2.634230	 0.765203	 1.437229	 0.686869	-3.333205	 2.540978	 0.696008	 96.707220	 87.921330	 170.136700	-51.580070	 75.662830	 64.852230	-2.334657	-12.721270	 23.123900	-25.956930	-3.198633	 9.563661	-7.377938	-4.247136	-36.952390	 5.070815	-0.697434	-9.399699	-2.350882	 35.473990	 5.254307
-0.125742	-3.638848	 1.233040	-5.688733	 9.020307	 2.930834	 5.410280	-20.119930	 175.375500	-4.288177	-36.501160	-1.147499	-1.309872	 83.734280	-0.559331	-2.327598	 37.132020	-0.201257	-1.715984	-21.181170	-179.005100	-1.760197	-38.790310	-0.664056	-1.385999	 86.413790	 0.938431	 2.395031	 25.659230	-0.058029	-7.559951	 5.497642	-1.413127	-12.215220	 4.412474	-1.981528	-14.741980	 1.743203	-0.755449	-100.900200	 88.614360	-168.393700	 53.372340	 68.501950	-62.979130	-4.709470	-4.251036	-16.661450	 8.342110	-2.294147	-5.292883	-3.376314	-11.775880	 3.938213	-5.213516	-0.193813	 3.566525	-1.378229	 35.397820	-2.634230	 0.766041	 1.565749	 0.756645	-3.255924	 2.892375	 0.712198	 96.881870	 87.959530	 169.955100	-52.201870	 75.647790	 65.256480	-2.526183	-12.683090	 23.021400	-25.981350	-3.199155	 9.562621	-7.313992	-4.236154	-36.796750	 5.070815	-0.697434	-9.399699	-2.350882	 35.473990	 5.254307
-0.127144	-3.640941	 1.232887	-5.494713	 8.938497	 2.850040	 5.330866	-19.962790	 175.362300	-4.225439	-36.479100	-1.154782	-1.338953	 83.789500	-0.544827	-2.325970	 37.306370	-0.205640	-1.748786	-20.463990	-178.986900	-1.508525	-37.924110	-0.535907	-1.254658	 86.450280	 0.981699	 2.393301	 26.180490	-0.047094	-7.677869	 5.438480	-1.417475	-12.287540	 4.602174	-1.952145	-14.738200	 1.971045	-0.725846	-100.569700	 88.614500	-168.813100	 53.094920	 68.656450	-62.617840	-4.662621	-4.234615	-16.315770	 8.511942	-2.303210	-5.288144	-3.479421	-11.872480	 3.697978	-5.213516	-0.193813	 3.566525	-1.378229	 35.397820	-2.634230	 0.749203	 1.656005	 0.818557	-3.210378	 3.161239	 0.669448	 97.048280	 87.995330	 169.783900	-52.485480	 75.674880	 65.331710	-2.633777	-12.658420	 22.959990	-25.992910	-3.199434	 9.562188	-7.266187	-4.205947	-36.696800	 5.070815	-0.697434	-9.399699	-2.350882	 35.473990	 5.254307
-0.128879	-3.643148	 1.232815	-5.265181	 8.890163	 2.771775	 5.225935	-19.788320	 175.348200	-4.140184	-36.413700	-1.160316	-1.377806	 83.804990	-0.519860	-2.324301	 37.482600	-0.210093	-1.862690	-19.743980	-179.028100	-1.237047	-36.952100	-0.451408	-1.399931	 86.526950	 1.264288	 2.391040	 26.815900	-0.033677	-7.806082	 5.357144	-1.451091	-12.360150	 4.796501	-1.918194	-14.734510	 2.223116	-0.693125	-100.130900	 88.598490	-169.340400	 52.831430	 68.871650	-62.320750	-4.682526	-4.219710	-15.969930	 8.694706	-2.311454	-5.283583	-3.354946	-11.921570	 3.985150	-5.213516	-0.193813	 3.566525	-1.378229	 35.397820	-2.634230	 0.730325	 1.752095	 0.897269	-3.166848	 3.469298	 0.625872	 97.297270	 88.048160	 169.530900	-52.732680	 75.722900	 65.326500	-2.735886	-12.630370	 22.896510	-26.000230	-3.199691	 9.562036	-7.211628	-4.154036	-36.595660	 5.070815	-0.697434	-9.399699	-2.350882	 35.473990	 5.254307
-0.130915	-3.645088	 1.232843	-5.067905	 8.861922	 2.776450	 5.093864	-19.599410	 175.251600	-4.061749	-36.291360	-1.186591	-1.415005	 83.739410	-0.527161	-2.322760	 37.644050	-0.214179	-2.011895	-19.199840	-179.223700	-1.055679	-36.013650	-0.454231	-1.427157	 86.478520	 1.305238	 2.390941	 26.843570	-0.033093	-7.915506	 5.300541	-1.593933	-12.396170	 4.983859	-1.901616	-14.719010	 2.471947	-0.660290	-99.577670	 88.551390	-169.961800	 52.645700	 69.149020	-62.226860	-4.748055	-4.227700	-15.655190	 8.944613	-2.320457	-5.278256	-3.283108	-11.961770	 4.150427	-5.213516	-0.193813	 3.566525	-1.378229	 35.397820	-2.634230	 0.731532	 1.843334	 0.990060	-3.135854	 3.785275	 0.640573	 97.668080	 88.127380	 169.164900	-53.032480	 75.770240	 65.389450	-2.827488	-12.597000	 22.830660	-25.999690	-3.199862	 9.561992	-7.153542	-4.076901	-36.504100	 5.070815	-0.697434	-9.399699	-2.350882	 35.473990	 5.254307
-0.132749	-3.646573	 1.232958	-5.026692	 8.847826	 2.944662	 4.988847	-19.434750	 174.993000	-4.045150	-36.129270	-1.242465	-1.452494	 83.627170	-0.578223	-2.322179	 37.704390	-0.215714	-2.188514	-18.836970	-179.503700	-1.067790	-35.402150	-0.584714	-1.579972	 86.422480	 1.284272	 2.393779	 26.040410	-0.050038	-7.953152	 5.304762	-1.878753	-12.351220	 5.122293	-1.931011	-14.681800	 2.653785	-0.635198	-99.034060	 88.467490	-170.521200	 52.538350	 69.461070	-62.304230	-4.899373	-4.253797	-15.458160	 9.182350	-2.326780	-5.273215	-3.243730	-11.976820	 4.241061	-5.213516	-0.193813	 3.566525	-1.378229	 35.397820	-2.634230	 0.769747	 1.947021	 1.074132	-3.127562	 3.964593	 0.716270	 98.125790	 88.226230	 168.731400	-53.188820	 75.820060	 65.323060	-2.892009	-12.562040	 22.772090	-25.989040	-3.200133	 9.561802	-7.106085	-3.989119	-36.447750	 5.070815	-0.697434	-9.399699	-2.350882	 35.473990	 5.254307
-0.134481	-3.648000	 1.233151	-5.192724	 8.859339	 3.192001	 4.922127	-19.280010	 174.721800	-4.105374	-35.912010	-1.320229	-1.481546	 83.479650	-0.674742	-2.322473	 37.673710	-0.214940	-2.338043	-18.532930	-179.753900	-1.295406	-34.953610	-0.817767	-1.870628	 86.253260	 1.238451	 2.396579	 25.156610	-0.068511	-7.916705	 5.306479	-2.193123	-12.224020	 5.257300	-1.989300	-14.618580	 2.828599	-0.610027	-98.730640	 88.392580	-170.796000	 52.323720	 69.876270	-62.206270	-5.213788	-4.283931	-15.396260	 9.338943	-2.328731	-5.270566	-3.341747	-12.133360	 4.011816	-5.213516	-0.193813	 3.566525	-1.378229	 35.397820	-2.634230	 0.850087	 2.090995	 1.134745	-3.137229	 4.050716	 0.787182	 98.425640	 88.305110	 168.484800	-53.306330	 75.850300	 65.272830	-2.963337	-12.531250	 22.707220	-25.994010	-3.200599	 9.561112	-7.062950	-3.890435	-36.410540	 5.070815	-0.697434	-9.399699	-2.350882	 35.473990	 5.254307
-0.135873	-3.649180	 1.233368	-5.527552	 8.887541	 3.309525	 4.905472	-19.116560	 174.722100	-4.248369	-35.657890	-1.399572	-1.503515	 83.322150	-0.787089	-2.322849	 37.634880	-0.213952	-2.426772	-18.415890	-179.864000	-1.561654	-34.667110	-1.026213	-2.161299	 86.097110	 1.219961	 2.397661	 24.781680	-0.076295	-7.824523	 5.253091	-2.310703	-12.054700	 5.394194	-1.997617	-14.541290	 3.018397	-0.582560	-98.755750	 88.371650	-170.728600	 52.210860	 70.212300	-62.088580	-5.616428	-4.290117	-15.522950	 9.270649	-2.323805	-5.273005	-3.623168	-12.465820	 3.361041	-5.213516	-0.193813	 3.566525	-1.378229	 35.397820	-2.634230	 0.942963	 2.213012	 1.140308	-3.148669	 4.109782	 0.764472	 98.306150	 88.327550	 168.686900	-53.299290	 75.854710	 65.164680	-3.053592	-12.513150	 22.635960	-26.032060	-3.201368	 9.559829	-7.025877	-3.799099	-36.383400	 5.070815	-0.697434	-9.399699	-2.350882	 35.473990	 5.254307
-0.137067	-3.650055	 1.233573	-5.887862	 8.901633	 3.216647	 4.939578	-18.926980	 174.814700	-4.412100	-35.393510	-1.456770	-1.527357	 83.180340	-0.869946	-2.323365	 37.581030	-0.212580	-2.460381	-18.433430	-179.761600	-1.760207	-34.517490	-1.150186	-2.378319	 86.055980	 1.254271	 2.397692	 24.772550	-0.076478	-7.732413	 5.193860	-2.176706	-11.904690	 5.524456	-1.922454	-14.466070	 3.216419	-0.554383	-98.919240	 88.382990	-170.531000	 52.311300	 70.382120	-62.090080	-6.051940	-4.261354	-15.831930	 8.950694	-2.314399	-5.279891	-3.819145	-12.782470	 2.912071	-5.213516	-0.193813	 3.566525	-1.378229	 35.397820	-2.634230	 1.018428	 2.263047	 1.096493	-3.150801	 4.205750	 0.664410	 98.018030	 88.315070	 169.045100	-53.175070	 75.838270	 64.996510	-3.148203	-12.503550	 22.564330	-26.088330	-3.202084	 9.558407	-6.998289	-3.726398	-36.366760	 5.070815	-0.697434	-9.399699	-2.350882	 35.473990	 5.254307
